<mxfile host="app.diagrams.net" agent="Mozilla/5.0 (Windows NT 10.0; Win64; x64) AppleWebKit/537.36 (KHTML, like Gecko) Chrome/127.0.0.0 Safari/537.36" version="24.7.7">
  <diagram name="Página-1" id="JcE80A2MZhTcPxWvcBoK">
    <mxGraphModel dx="712" dy="771" grid="1" gridSize="10" guides="1" tooltips="1" connect="1" arrows="1" fold="1" page="1" pageScale="1" pageWidth="827" pageHeight="1169" background="none" math="0" shadow="0">
      <root>
        <mxCell id="0" />
        <mxCell id="1" parent="0" />
        <mxCell id="xfxczLTc0W3If0-bYOlU-2" value="GERENCIA" style="shape=rhombus;perimeter=rhombusPerimeter;whiteSpace=wrap;html=1;align=center;" vertex="1" parent="1">
          <mxGeometry x="354" y="300" width="146" height="80" as="geometry" />
        </mxCell>
        <mxCell id="xfxczLTc0W3If0-bYOlU-6" style="edgeStyle=orthogonalEdgeStyle;rounded=0;orthogonalLoop=1;jettySize=auto;html=1;entryX=1;entryY=0;entryDx=0;entryDy=0;" edge="1" parent="1" source="xfxczLTc0W3If0-bYOlU-3" target="xfxczLTc0W3If0-bYOlU-4">
          <mxGeometry relative="1" as="geometry" />
        </mxCell>
        <mxCell id="xfxczLTc0W3If0-bYOlU-7" style="edgeStyle=orthogonalEdgeStyle;rounded=0;orthogonalLoop=1;jettySize=auto;html=1;entryX=0;entryY=0;entryDx=0;entryDy=0;" edge="1" parent="1" source="xfxczLTc0W3If0-bYOlU-3" target="xfxczLTc0W3If0-bYOlU-5">
          <mxGeometry relative="1" as="geometry" />
        </mxCell>
        <mxCell id="xfxczLTc0W3If0-bYOlU-3" value="TRABALHAR_PARA" style="shape=rhombus;perimeter=rhombusPerimeter;whiteSpace=wrap;html=1;align=center;" vertex="1" parent="1">
          <mxGeometry x="354" y="160" width="136" height="80" as="geometry" />
        </mxCell>
        <mxCell id="xfxczLTc0W3If0-bYOlU-9" style="edgeStyle=orthogonalEdgeStyle;rounded=0;orthogonalLoop=1;jettySize=auto;html=1;entryX=0;entryY=0.5;entryDx=0;entryDy=0;" edge="1" parent="1" source="xfxczLTc0W3If0-bYOlU-4" target="xfxczLTc0W3If0-bYOlU-2">
          <mxGeometry relative="1" as="geometry" />
        </mxCell>
        <mxCell id="xfxczLTc0W3If0-bYOlU-4" value="FUNCIONÁRIO" style="whiteSpace=wrap;html=1;align=center;" vertex="1" parent="1">
          <mxGeometry x="160" y="250" width="100" height="40" as="geometry" />
        </mxCell>
        <mxCell id="xfxczLTc0W3If0-bYOlU-8" style="edgeStyle=orthogonalEdgeStyle;rounded=0;orthogonalLoop=1;jettySize=auto;html=1;entryX=1;entryY=0.5;entryDx=0;entryDy=0;" edge="1" parent="1" source="xfxczLTc0W3If0-bYOlU-5" target="xfxczLTc0W3If0-bYOlU-2">
          <mxGeometry relative="1" as="geometry" />
        </mxCell>
        <mxCell id="xfxczLTc0W3If0-bYOlU-5" value="DEPARTAMENTO" style="whiteSpace=wrap;html=1;align=center;" vertex="1" parent="1">
          <mxGeometry x="590" y="250" width="100" height="40" as="geometry" />
        </mxCell>
        <mxCell id="xfxczLTc0W3If0-bYOlU-10" value="RUA" style="ellipse;whiteSpace=wrap;html=1;align=center;" vertex="1" parent="1">
          <mxGeometry x="380" y="390" width="100" height="40" as="geometry" />
        </mxCell>
        <mxCell id="xfxczLTc0W3If0-bYOlU-11" value="&lt;span style=&quot;border-bottom: 1px dotted&quot;&gt;NUMERO&lt;/span&gt;" style="ellipse;whiteSpace=wrap;html=1;align=center;" vertex="1" parent="1">
          <mxGeometry x="320" y="420" width="100" height="40" as="geometry" />
        </mxCell>
        <mxCell id="xfxczLTc0W3If0-bYOlU-12" value="CEP" style="ellipse;whiteSpace=wrap;html=1;align=center;" vertex="1" parent="1">
          <mxGeometry x="220" y="340" width="100" height="40" as="geometry" />
        </mxCell>
        <mxCell id="xfxczLTc0W3If0-bYOlU-13" value="&lt;span style=&quot;border-bottom: 1px dotted&quot;&gt;´SALARIO&lt;/span&gt;" style="ellipse;whiteSpace=wrap;html=1;align=center;" vertex="1" parent="1">
          <mxGeometry x="520" y="460" width="100" height="40" as="geometry" />
        </mxCell>
        <mxCell id="xfxczLTc0W3If0-bYOlU-14" value="ENDEREÇO" style="ellipse;whiteSpace=wrap;html=1;align=center;" vertex="1" parent="1">
          <mxGeometry x="210" y="410" width="100" height="40" as="geometry" />
        </mxCell>
        <mxCell id="xfxczLTc0W3If0-bYOlU-15" value="CPF" style="ellipse;whiteSpace=wrap;html=1;align=center;" vertex="1" parent="1">
          <mxGeometry x="380" y="390" width="100" height="40" as="geometry" />
        </mxCell>
      </root>
    </mxGraphModel>
  </diagram>
</mxfile>
